<svg xmlns="http://www.w3.org/2000/svg" xmlns:xlink="http://www.w3.org/1999/xlink" width="1300" zoomAndPan="magnify" viewBox="0 0 974.88 225" height="300" preserveAspectRatio="xMidYMid meet" version="1.0"><defs><g/></defs><g fill="#312e81" fill-opacity="0.4"><g transform="translate(7.817596, 172.955063)"><g><path d="M 0 0 L 0 -105.84375 L 70.5625 -105.84375 L 70.5625 -94.09375 L 23.515625 -94.09375 L 23.515625 -58.796875 L 58.796875 -58.796875 L 58.796875 -47.046875 L 23.515625 -47.046875 L 23.515625 0 Z M 0 0 "/></g></g></g><g fill="#312e81" fill-opacity="0.4"><g transform="translate(90.142717, 172.955063)"><g><path d="M 47.046875 -11.765625 L 47.046875 -70.5625 L 23.515625 -70.5625 L 23.515625 -11.765625 Z M 11.765625 0 L 11.765625 -11.765625 L 0 -11.765625 L 0 -70.5625 L 11.765625 -70.5625 L 11.765625 -82.328125 L 58.796875 -82.328125 L 58.796875 -70.5625 L 70.5625 -70.5625 L 70.5625 -11.765625 L 58.796875 -11.765625 L 58.796875 0 Z M 11.765625 0 "/></g></g></g><g fill="#312e81" fill-opacity="0.4"><g transform="translate(172.467838, 172.955063)"><g><path d="M 0 0 L 0 -82.328125 L 23.515625 -82.328125 L 23.515625 -58.796875 L 35.28125 -58.796875 L 35.28125 -47.046875 L 23.515625 -47.046875 L 23.515625 0 Z M 35.28125 -58.796875 L 35.28125 -82.328125 L 58.796875 -82.328125 L 58.796875 -58.796875 Z M 35.28125 -58.796875 "/></g></g></g><g fill="#312e81" fill-opacity="0.4"><g transform="translate(243.032228, 172.955063)"><g><path d="M 47.046875 -47.046875 L 47.046875 -70.5625 L 23.515625 -70.5625 L 23.515625 -47.046875 Z M 11.765625 0 L 11.765625 -11.765625 L 0 -11.765625 L 0 -70.5625 L 11.765625 -70.5625 L 11.765625 -82.328125 L 58.796875 -82.328125 L 58.796875 -70.5625 L 70.5625 -70.5625 L 70.5625 -35.28125 L 23.515625 -35.28125 L 23.515625 -11.765625 L 58.796875 -11.765625 L 58.796875 0 Z M 11.765625 0 "/></g></g></g><g fill="#312e81" fill-opacity="0.4"><g transform="translate(325.357349, 172.955063)"><g><path d="M 11.765625 0 L 11.765625 -11.765625 L 0 -11.765625 L 0 -70.5625 L 11.765625 -70.5625 L 11.765625 -82.328125 L 58.796875 -82.328125 L 58.796875 -70.5625 L 23.515625 -70.5625 L 23.515625 -11.765625 L 58.796875 -11.765625 L 58.796875 0 Z M 11.765625 0 "/></g></g></g><g fill="#312e81" fill-opacity="0.4"><g transform="translate(395.92174, 172.955063)"><g><path d="M 47.046875 -11.765625 L 47.046875 -35.28125 L 23.515625 -35.28125 L 23.515625 -11.765625 Z M 11.765625 0 L 11.765625 -11.765625 L 0 -11.765625 L 0 -35.28125 L 11.765625 -35.28125 L 11.765625 -47.046875 L 47.046875 -47.046875 L 47.046875 -70.5625 L 11.765625 -70.5625 L 11.765625 -82.328125 L 58.796875 -82.328125 L 58.796875 -70.5625 L 70.5625 -70.5625 L 70.5625 0 Z M 11.765625 0 "/></g></g></g><g fill="#312e81" fill-opacity="0.4"><g transform="translate(478.246861, 172.955063)"><g><path d="M 0 0 L 0 -11.765625 L 35.28125 -11.765625 L 35.28125 -35.28125 L 11.765625 -35.28125 L 11.765625 -47.046875 L 0 -47.046875 L 0 -70.5625 L 11.765625 -70.5625 L 11.765625 -82.328125 L 58.796875 -82.328125 L 58.796875 -70.5625 L 23.515625 -70.5625 L 23.515625 -47.046875 L 47.046875 -47.046875 L 47.046875 -35.28125 L 58.796875 -35.28125 L 58.796875 -11.765625 L 47.046875 -11.765625 L 47.046875 0 Z M 0 0 "/></g></g></g><g fill="#312e81" fill-opacity="0.4"><g transform="translate(548.811251, 172.955063)"><g><path d="M 11.765625 0 L 11.765625 -11.765625 L 0 -11.765625 L 0 -105.84375 L 23.515625 -105.84375 L 23.515625 -82.328125 L 47.046875 -82.328125 L 47.046875 -70.5625 L 23.515625 -70.5625 L 23.515625 -11.765625 L 47.046875 -11.765625 L 47.046875 0 Z M 11.765625 0 "/></g></g></g><g fill="#312e81" fill-opacity="0.4"><g transform="translate(607.614909, 172.955063)"><g><path d="M 0 0 L 0 -11.765625 L 35.28125 -11.765625 L 35.28125 -35.28125 L 11.765625 -35.28125 L 11.765625 -47.046875 L 0 -47.046875 L 0 -70.5625 L 11.765625 -70.5625 L 11.765625 -82.328125 L 58.796875 -82.328125 L 58.796875 -70.5625 L 23.515625 -70.5625 L 23.515625 -47.046875 L 47.046875 -47.046875 L 47.046875 -35.28125 L 58.796875 -35.28125 L 58.796875 -11.765625 L 47.046875 -11.765625 L 47.046875 0 Z M 0 0 "/></g></g></g><g fill="#312e81" fill-opacity="1"><g transform="translate(0, 165.137467)"><g><path d="M 0 0 L 0 -105.84375 L 70.5625 -105.84375 L 70.5625 -94.09375 L 23.515625 -94.09375 L 23.515625 -58.796875 L 58.796875 -58.796875 L 58.796875 -47.046875 L 23.515625 -47.046875 L 23.515625 0 Z M 0 0 "/></g></g></g><g fill="#312e81" fill-opacity="1"><g transform="translate(82.325121, 165.137467)"><g><path d="M 47.046875 -11.765625 L 47.046875 -70.5625 L 23.515625 -70.5625 L 23.515625 -11.765625 Z M 11.765625 0 L 11.765625 -11.765625 L 0 -11.765625 L 0 -70.5625 L 11.765625 -70.5625 L 11.765625 -82.328125 L 58.796875 -82.328125 L 58.796875 -70.5625 L 70.5625 -70.5625 L 70.5625 -11.765625 L 58.796875 -11.765625 L 58.796875 0 Z M 11.765625 0 "/></g></g></g><g fill="#312e81" fill-opacity="1"><g transform="translate(164.650242, 165.137467)"><g><path d="M 0 0 L 0 -82.328125 L 23.515625 -82.328125 L 23.515625 -58.796875 L 35.28125 -58.796875 L 35.28125 -47.046875 L 23.515625 -47.046875 L 23.515625 0 Z M 35.28125 -58.796875 L 35.28125 -82.328125 L 58.796875 -82.328125 L 58.796875 -58.796875 Z M 35.28125 -58.796875 "/></g></g></g><g fill="#312e81" fill-opacity="1"><g transform="translate(235.214632, 165.137467)"><g><path d="M 47.046875 -47.046875 L 47.046875 -70.5625 L 23.515625 -70.5625 L 23.515625 -47.046875 Z M 11.765625 0 L 11.765625 -11.765625 L 0 -11.765625 L 0 -70.5625 L 11.765625 -70.5625 L 11.765625 -82.328125 L 58.796875 -82.328125 L 58.796875 -70.5625 L 70.5625 -70.5625 L 70.5625 -35.28125 L 23.515625 -35.28125 L 23.515625 -11.765625 L 58.796875 -11.765625 L 58.796875 0 Z M 11.765625 0 "/></g></g></g><g fill="#312e81" fill-opacity="1"><g transform="translate(317.539753, 165.137467)"><g><path d="M 11.765625 0 L 11.765625 -11.765625 L 0 -11.765625 L 0 -70.5625 L 11.765625 -70.5625 L 11.765625 -82.328125 L 58.796875 -82.328125 L 58.796875 -70.5625 L 23.515625 -70.5625 L 23.515625 -11.765625 L 58.796875 -11.765625 L 58.796875 0 Z M 11.765625 0 "/></g></g></g><g fill="#312e81" fill-opacity="1"><g transform="translate(388.104144, 165.137467)"><g><path d="M 47.046875 -11.765625 L 47.046875 -35.28125 L 23.515625 -35.28125 L 23.515625 -11.765625 Z M 11.765625 0 L 11.765625 -11.765625 L 0 -11.765625 L 0 -35.28125 L 11.765625 -35.28125 L 11.765625 -47.046875 L 47.046875 -47.046875 L 47.046875 -70.5625 L 11.765625 -70.5625 L 11.765625 -82.328125 L 58.796875 -82.328125 L 58.796875 -70.5625 L 70.5625 -70.5625 L 70.5625 0 Z M 11.765625 0 "/></g></g></g><g fill="#312e81" fill-opacity="1"><g transform="translate(470.429265, 165.137467)"><g><path d="M 0 0 L 0 -11.765625 L 35.28125 -11.765625 L 35.28125 -35.28125 L 11.765625 -35.28125 L 11.765625 -47.046875 L 0 -47.046875 L 0 -70.5625 L 11.765625 -70.5625 L 11.765625 -82.328125 L 58.796875 -82.328125 L 58.796875 -70.5625 L 23.515625 -70.5625 L 23.515625 -47.046875 L 47.046875 -47.046875 L 47.046875 -35.28125 L 58.796875 -35.28125 L 58.796875 -11.765625 L 47.046875 -11.765625 L 47.046875 0 Z M 0 0 "/></g></g></g><g fill="#312e81" fill-opacity="1"><g transform="translate(540.993655, 165.137467)"><g><path d="M 11.765625 0 L 11.765625 -11.765625 L 0 -11.765625 L 0 -105.84375 L 23.515625 -105.84375 L 23.515625 -82.328125 L 47.046875 -82.328125 L 47.046875 -70.5625 L 23.515625 -70.5625 L 23.515625 -11.765625 L 47.046875 -11.765625 L 47.046875 0 Z M 11.765625 0 "/></g></g></g><g fill="#312e81" fill-opacity="1"><g transform="translate(599.797313, 165.137467)"><g><path d="M 0 0 L 0 -11.765625 L 35.28125 -11.765625 L 35.28125 -35.28125 L 11.765625 -35.28125 L 11.765625 -47.046875 L 0 -47.046875 L 0 -70.5625 L 11.765625 -70.5625 L 11.765625 -82.328125 L 58.796875 -82.328125 L 58.796875 -70.5625 L 23.515625 -70.5625 L 23.515625 -47.046875 L 47.046875 -47.046875 L 47.046875 -35.28125 L 58.796875 -35.28125 L 58.796875 -11.765625 L 47.046875 -11.765625 L 47.046875 0 Z M 0 0 "/></g></g></g></svg>