<svg xmlns="http://www.w3.org/2000/svg" xmlns:xlink="http://www.w3.org/1999/xlink" width="1500" zoomAndPan="magnify" viewBox="0 0 1125 225" height="300" preserveAspectRatio="xMidYMid meet" version="1.0"><defs><g/></defs><g fill="#312e81" fill-opacity="0.4"><g transform="translate(7.818558, 172.962504)"><g><path d="M 47.046875 -11.765625 L 47.046875 -94.109375 L 23.53125 -94.109375 L 23.53125 -11.765625 Z M 0 0 L 0 -105.859375 L 58.8125 -105.859375 L 58.8125 -94.109375 L 70.578125 -94.109375 L 70.578125 -11.765625 L 58.8125 -11.765625 L 58.8125 0 Z M 0 0 "/></g></g></g><g fill="#312e81" fill-opacity="0.4"><g transform="translate(90.153813, 172.962504)"><g><path d="M 47.046875 -11.765625 L 47.046875 -70.578125 L 23.53125 -70.578125 L 23.53125 -11.765625 Z M 11.765625 0 L 11.765625 -11.765625 L 0 -11.765625 L 0 -70.578125 L 11.765625 -70.578125 L 11.765625 -82.34375 L 58.8125 -82.34375 L 58.8125 -70.578125 L 70.578125 -70.578125 L 70.578125 -11.765625 L 58.8125 -11.765625 L 58.8125 0 Z M 11.765625 0 "/></g></g></g><g fill="#312e81" fill-opacity="0.4"><g transform="translate(172.489068, 172.962504)"><g><path d="M 11.765625 0 L 11.765625 -11.765625 L 0 -11.765625 L 0 -70.578125 L 11.765625 -70.578125 L 11.765625 -82.34375 L 58.8125 -82.34375 L 58.8125 -70.578125 L 23.53125 -70.578125 L 23.53125 -11.765625 L 58.8125 -11.765625 L 58.8125 0 Z M 11.765625 0 "/></g></g></g><g fill="#312e81" fill-opacity="0.4"><g transform="translate(243.062144, 172.962504)"><g><path d="M 11.765625 0 L 11.765625 -11.765625 L 0 -11.765625 L 0 -82.34375 L 23.53125 -82.34375 L 23.53125 -11.765625 L 47.046875 -11.765625 L 47.046875 -82.34375 L 70.578125 -82.34375 L 70.578125 0 Z M 11.765625 0 "/></g></g></g><g fill="#312e81" fill-opacity="0.4"><g transform="translate(325.397398, 172.962504)"><g><path d="M 0 0 L 0 -82.34375 L 82.34375 -82.34375 L 82.34375 -70.578125 L 94.109375 -70.578125 L 94.109375 0 L 70.578125 0 L 70.578125 -70.578125 L 58.8125 -70.578125 L 58.8125 0 L 35.28125 0 L 35.28125 -70.578125 L 23.53125 -70.578125 L 23.53125 0 Z M 0 0 "/></g></g></g><g fill="#312e81" fill-opacity="0.4"><g transform="translate(431.257012, 172.962504)"><g><path d="M 47.046875 -47.046875 L 47.046875 -70.578125 L 23.53125 -70.578125 L 23.53125 -47.046875 Z M 11.765625 0 L 11.765625 -11.765625 L 0 -11.765625 L 0 -70.578125 L 11.765625 -70.578125 L 11.765625 -82.34375 L 58.8125 -82.34375 L 58.8125 -70.578125 L 70.578125 -70.578125 L 70.578125 -35.28125 L 23.53125 -35.28125 L 23.53125 -11.765625 L 58.8125 -11.765625 L 58.8125 0 Z M 11.765625 0 "/></g></g></g><g fill="#312e81" fill-opacity="0.4"><g transform="translate(513.592267, 172.962504)"><g><path d="M 0 0 L 0 -82.34375 L 58.8125 -82.34375 L 58.8125 -70.578125 L 70.578125 -70.578125 L 70.578125 0 L 47.046875 0 L 47.046875 -70.578125 L 23.53125 -70.578125 L 23.53125 0 Z M 0 0 "/></g></g></g><g fill="#312e81" fill-opacity="0.4"><g transform="translate(595.927522, 172.962504)"><g><path d="M 11.765625 0 L 11.765625 -11.765625 L 0 -11.765625 L 0 -105.859375 L 23.53125 -105.859375 L 23.53125 -82.34375 L 47.046875 -82.34375 L 47.046875 -70.578125 L 23.53125 -70.578125 L 23.53125 -11.765625 L 47.046875 -11.765625 L 47.046875 0 Z M 11.765625 0 "/></g></g></g><g fill="#312e81" fill-opacity="0.4"><g transform="translate(654.738418, 172.962504)"><g><path d="M 47.046875 -11.765625 L 47.046875 -35.28125 L 23.53125 -35.28125 L 23.53125 -11.765625 Z M 11.765625 0 L 11.765625 -11.765625 L 0 -11.765625 L 0 -35.28125 L 11.765625 -35.28125 L 11.765625 -47.046875 L 47.046875 -47.046875 L 47.046875 -70.578125 L 11.765625 -70.578125 L 11.765625 -82.34375 L 58.8125 -82.34375 L 58.8125 -70.578125 L 70.578125 -70.578125 L 70.578125 0 Z M 11.765625 0 "/></g></g></g><g fill="#312e81" fill-opacity="0.4"><g transform="translate(737.073673, 172.962504)"><g><path d="M 11.765625 0 L 11.765625 -11.765625 L 0 -11.765625 L 0 -105.859375 L 23.53125 -105.859375 L 23.53125 -82.34375 L 47.046875 -82.34375 L 47.046875 -70.578125 L 23.53125 -70.578125 L 23.53125 -11.765625 L 47.046875 -11.765625 L 47.046875 0 Z M 11.765625 0 "/></g></g></g><g fill="#312e81" fill-opacity="0.4"><g transform="translate(795.884569, 172.962504)"><g><path d="M 11.765625 0 L 11.765625 -70.578125 L 0 -70.578125 L 0 -82.34375 L 35.28125 -82.34375 L 35.28125 0 Z M 11.765625 -94.109375 L 11.765625 -117.625 L 35.28125 -117.625 L 35.28125 -94.109375 Z M 11.765625 -94.109375 "/></g></g></g><g fill="#312e81" fill-opacity="0.4"><g transform="translate(842.933287, 172.962504)"><g><path d="M 47.046875 -11.765625 L 47.046875 -70.578125 L 23.53125 -70.578125 L 23.53125 -11.765625 Z M 11.765625 0 L 11.765625 -11.765625 L 0 -11.765625 L 0 -70.578125 L 11.765625 -70.578125 L 11.765625 -82.34375 L 58.8125 -82.34375 L 58.8125 -70.578125 L 70.578125 -70.578125 L 70.578125 -11.765625 L 58.8125 -11.765625 L 58.8125 0 Z M 11.765625 0 "/></g></g></g><g fill="#312e81" fill-opacity="0.4"><g transform="translate(925.268541, 172.962504)"><g><path d="M 0 0 L 0 -82.34375 L 58.8125 -82.34375 L 58.8125 -70.578125 L 70.578125 -70.578125 L 70.578125 0 L 47.046875 0 L 47.046875 -70.578125 L 23.53125 -70.578125 L 23.53125 0 Z M 0 0 "/></g></g></g><g fill="#312e81" fill-opacity="1"><g transform="translate(0, 165.143946)"><g><path d="M 47.046875 -11.765625 L 47.046875 -94.109375 L 23.53125 -94.109375 L 23.53125 -11.765625 Z M 0 0 L 0 -105.859375 L 58.8125 -105.859375 L 58.8125 -94.109375 L 70.578125 -94.109375 L 70.578125 -11.765625 L 58.8125 -11.765625 L 58.8125 0 Z M 0 0 "/></g></g></g><g fill="#312e81" fill-opacity="1"><g transform="translate(82.335255, 165.143946)"><g><path d="M 47.046875 -11.765625 L 47.046875 -70.578125 L 23.53125 -70.578125 L 23.53125 -11.765625 Z M 11.765625 0 L 11.765625 -11.765625 L 0 -11.765625 L 0 -70.578125 L 11.765625 -70.578125 L 11.765625 -82.34375 L 58.8125 -82.34375 L 58.8125 -70.578125 L 70.578125 -70.578125 L 70.578125 -11.765625 L 58.8125 -11.765625 L 58.8125 0 Z M 11.765625 0 "/></g></g></g><g fill="#312e81" fill-opacity="1"><g transform="translate(164.670509, 165.143946)"><g><path d="M 11.765625 0 L 11.765625 -11.765625 L 0 -11.765625 L 0 -70.578125 L 11.765625 -70.578125 L 11.765625 -82.34375 L 58.8125 -82.34375 L 58.8125 -70.578125 L 23.53125 -70.578125 L 23.53125 -11.765625 L 58.8125 -11.765625 L 58.8125 0 Z M 11.765625 0 "/></g></g></g><g fill="#312e81" fill-opacity="1"><g transform="translate(235.243585, 165.143946)"><g><path d="M 11.765625 0 L 11.765625 -11.765625 L 0 -11.765625 L 0 -82.34375 L 23.53125 -82.34375 L 23.53125 -11.765625 L 47.046875 -11.765625 L 47.046875 -82.34375 L 70.578125 -82.34375 L 70.578125 0 Z M 11.765625 0 "/></g></g></g><g fill="#312e81" fill-opacity="1"><g transform="translate(317.57884, 165.143946)"><g><path d="M 0 0 L 0 -82.34375 L 82.34375 -82.34375 L 82.34375 -70.578125 L 94.109375 -70.578125 L 94.109375 0 L 70.578125 0 L 70.578125 -70.578125 L 58.8125 -70.578125 L 58.8125 0 L 35.28125 0 L 35.28125 -70.578125 L 23.53125 -70.578125 L 23.53125 0 Z M 0 0 "/></g></g></g><g fill="#312e81" fill-opacity="1"><g transform="translate(423.438454, 165.143946)"><g><path d="M 47.046875 -47.046875 L 47.046875 -70.578125 L 23.53125 -70.578125 L 23.53125 -47.046875 Z M 11.765625 0 L 11.765625 -11.765625 L 0 -11.765625 L 0 -70.578125 L 11.765625 -70.578125 L 11.765625 -82.34375 L 58.8125 -82.34375 L 58.8125 -70.578125 L 70.578125 -70.578125 L 70.578125 -35.28125 L 23.53125 -35.28125 L 23.53125 -11.765625 L 58.8125 -11.765625 L 58.8125 0 Z M 11.765625 0 "/></g></g></g><g fill="#312e81" fill-opacity="1"><g transform="translate(505.773709, 165.143946)"><g><path d="M 0 0 L 0 -82.34375 L 58.8125 -82.34375 L 58.8125 -70.578125 L 70.578125 -70.578125 L 70.578125 0 L 47.046875 0 L 47.046875 -70.578125 L 23.53125 -70.578125 L 23.53125 0 Z M 0 0 "/></g></g></g><g fill="#312e81" fill-opacity="1"><g transform="translate(588.108963, 165.143946)"><g><path d="M 11.765625 0 L 11.765625 -11.765625 L 0 -11.765625 L 0 -105.859375 L 23.53125 -105.859375 L 23.53125 -82.34375 L 47.046875 -82.34375 L 47.046875 -70.578125 L 23.53125 -70.578125 L 23.53125 -11.765625 L 47.046875 -11.765625 L 47.046875 0 Z M 11.765625 0 "/></g></g></g><g fill="#312e81" fill-opacity="1"><g transform="translate(646.91986, 165.143946)"><g><path d="M 47.046875 -11.765625 L 47.046875 -35.28125 L 23.53125 -35.28125 L 23.53125 -11.765625 Z M 11.765625 0 L 11.765625 -11.765625 L 0 -11.765625 L 0 -35.28125 L 11.765625 -35.28125 L 11.765625 -47.046875 L 47.046875 -47.046875 L 47.046875 -70.578125 L 11.765625 -70.578125 L 11.765625 -82.34375 L 58.8125 -82.34375 L 58.8125 -70.578125 L 70.578125 -70.578125 L 70.578125 0 Z M 11.765625 0 "/></g></g></g><g fill="#312e81" fill-opacity="1"><g transform="translate(729.255114, 165.143946)"><g><path d="M 11.765625 0 L 11.765625 -11.765625 L 0 -11.765625 L 0 -105.859375 L 23.53125 -105.859375 L 23.53125 -82.34375 L 47.046875 -82.34375 L 47.046875 -70.578125 L 23.53125 -70.578125 L 23.53125 -11.765625 L 47.046875 -11.765625 L 47.046875 0 Z M 11.765625 0 "/></g></g></g><g fill="#312e81" fill-opacity="1"><g transform="translate(788.066011, 165.143946)"><g><path d="M 11.765625 0 L 11.765625 -70.578125 L 0 -70.578125 L 0 -82.34375 L 35.28125 -82.34375 L 35.28125 0 Z M 11.765625 -94.109375 L 11.765625 -117.625 L 35.28125 -117.625 L 35.28125 -94.109375 Z M 11.765625 -94.109375 "/></g></g></g><g fill="#312e81" fill-opacity="1"><g transform="translate(835.114728, 165.143946)"><g><path d="M 47.046875 -11.765625 L 47.046875 -70.578125 L 23.53125 -70.578125 L 23.53125 -11.765625 Z M 11.765625 0 L 11.765625 -11.765625 L 0 -11.765625 L 0 -70.578125 L 11.765625 -70.578125 L 11.765625 -82.34375 L 58.8125 -82.34375 L 58.8125 -70.578125 L 70.578125 -70.578125 L 70.578125 -11.765625 L 58.8125 -11.765625 L 58.8125 0 Z M 11.765625 0 "/></g></g></g><g fill="#312e81" fill-opacity="1"><g transform="translate(917.449983, 165.143946)"><g><path d="M 0 0 L 0 -82.34375 L 58.8125 -82.34375 L 58.8125 -70.578125 L 70.578125 -70.578125 L 70.578125 0 L 47.046875 0 L 47.046875 -70.578125 L 23.53125 -70.578125 L 23.53125 0 Z M 0 0 "/></g></g></g></svg>