<svg xmlns="http://www.w3.org/2000/svg" xmlns:xlink="http://www.w3.org/1999/xlink" width="1300" zoomAndPan="magnify" viewBox="0 0 974.88 225" height="300" preserveAspectRatio="xMidYMid meet" version="1.0"><defs><g/></defs><g fill="#312e81" fill-opacity="1"><g transform="translate(0, 165.672808)"><g><path d="M 0 0 L 0 -105.859375 L 23.53125 -105.859375 L 23.53125 -94.09375 L 35.28125 -94.09375 L 35.28125 -70.578125 L 47.046875 -70.578125 L 47.046875 -94.09375 L 58.8125 -94.09375 L 58.8125 -105.859375 L 82.328125 -105.859375 L 82.328125 0 L 58.8125 0 L 58.8125 -58.8125 L 47.046875 -58.8125 L 47.046875 -35.28125 L 35.28125 -35.28125 L 35.28125 -58.8125 L 23.53125 -58.8125 L 23.53125 0 Z M 0 0 "/></g></g></g><g fill="#312e81" fill-opacity="1"><g transform="translate(94.089977, 165.672808)"><g><path d="M 47.046875 -11.765625 L 47.046875 -70.578125 L 23.53125 -70.578125 L 23.53125 -11.765625 Z M 11.765625 0 L 11.765625 -11.765625 L 0 -11.765625 L 0 -70.578125 L 11.765625 -70.578125 L 11.765625 -82.328125 L 58.8125 -82.328125 L 58.8125 -70.578125 L 70.578125 -70.578125 L 70.578125 -11.765625 L 58.8125 -11.765625 L 58.8125 0 Z M 11.765625 0 "/></g></g></g><g fill="#312e81" fill-opacity="1"><g transform="translate(176.418706, 165.672808)"><g><path d="M 47.046875 -11.765625 L 47.046875 -70.578125 L 23.53125 -70.578125 L 23.53125 -11.765625 Z M 11.765625 0 L 11.765625 -11.765625 L 0 -11.765625 L 0 -70.578125 L 11.765625 -70.578125 L 11.765625 -82.328125 L 47.046875 -82.328125 L 47.046875 -117.625 L 70.578125 -117.625 L 70.578125 0 Z M 11.765625 0 "/></g></g></g><g fill="#312e81" fill-opacity="1"><g transform="translate(258.747436, 165.672808)"><g><path d="M 11.765625 0 L 11.765625 -11.765625 L 0 -11.765625 L 0 -82.328125 L 23.53125 -82.328125 L 23.53125 -11.765625 L 47.046875 -11.765625 L 47.046875 -82.328125 L 70.578125 -82.328125 L 70.578125 0 Z M 11.765625 0 "/></g></g></g><g fill="#312e81" fill-opacity="1"><g transform="translate(341.076166, 165.672808)"><g><path d="M 0 0 L 0 -105.859375 L -11.765625 -105.859375 L -11.765625 -117.625 L 23.53125 -117.625 L 23.53125 0 Z M 0 0 "/></g></g></g><g fill="#312e81" fill-opacity="1"><g transform="translate(376.359907, 165.672808)"><g><path d="M 47.046875 -11.765625 L 47.046875 -70.578125 L 23.53125 -70.578125 L 23.53125 -11.765625 Z M 11.765625 0 L 11.765625 -11.765625 L 0 -11.765625 L 0 -70.578125 L 11.765625 -70.578125 L 11.765625 -82.328125 L 58.8125 -82.328125 L 58.8125 -70.578125 L 70.578125 -70.578125 L 70.578125 -11.765625 L 58.8125 -11.765625 L 58.8125 0 Z M 11.765625 0 "/></g></g></g><g fill="#312e81" fill-opacity="1"><g transform="translate(458.688636, 165.672808)"><g><path d="M 0 0 L 0 -23.53125 L 23.53125 -23.53125 L 23.53125 0 Z M 0 0 "/></g></g></g><g fill="#ff00ff" fill-opacity="1"><g transform="translate(500.224741, 171.711934)"><g><path d="M 11.765625 0 L 11.765625 -11.765625 L 0 -11.765625 L 0 -94.09375 L 11.765625 -94.09375 L 11.765625 -105.859375 L 58.8125 -105.859375 L 58.8125 -94.09375 L 70.578125 -94.09375 L 70.578125 -82.328125 L 47.046875 -82.328125 L 47.046875 -94.09375 L 23.53125 -94.09375 L 23.53125 -11.765625 L 47.046875 -11.765625 L 47.046875 -47.046875 L 35.28125 -47.046875 L 35.28125 -58.8125 L 70.578125 -58.8125 L 70.578125 0 Z M 11.765625 0 "/></g></g></g><g fill="#ff00ff" fill-opacity="1"><g transform="translate(582.553471, 171.711934)"><g><path d="M 47.046875 -11.765625 L 47.046875 -35.28125 L 23.53125 -35.28125 L 23.53125 -11.765625 Z M 11.765625 0 L 11.765625 -11.765625 L 0 -11.765625 L 0 -35.28125 L 11.765625 -35.28125 L 11.765625 -47.046875 L 47.046875 -47.046875 L 47.046875 -70.578125 L 11.765625 -70.578125 L 11.765625 -82.328125 L 58.8125 -82.328125 L 58.8125 -70.578125 L 70.578125 -70.578125 L 70.578125 0 Z M 11.765625 0 "/></g></g></g><g fill="#ff00ff" fill-opacity="1"><g transform="translate(664.882201, 171.711934)"><g><path d="M 0 0 L 0 -23.53125 L 11.765625 -23.53125 L 11.765625 -35.28125 L 23.53125 -35.28125 L 23.53125 -47.046875 L 35.28125 -47.046875 L 35.28125 -58.8125 L 47.046875 -58.8125 L 47.046875 -70.578125 L 0 -70.578125 L 0 -82.328125 L 70.578125 -82.328125 L 70.578125 -58.8125 L 58.8125 -58.8125 L 58.8125 -47.046875 L 47.046875 -47.046875 L 47.046875 -35.28125 L 35.28125 -35.28125 L 35.28125 -23.53125 L 23.53125 -23.53125 L 23.53125 -11.765625 L 70.578125 -11.765625 L 70.578125 0 Z M 0 0 "/></g></g></g><g fill="#ff00ff" fill-opacity="1"><g transform="translate(747.21093, 171.711934)"><g><path d="M 47.046875 -47.046875 L 47.046875 -70.578125 L 23.53125 -70.578125 L 23.53125 -47.046875 Z M 11.765625 0 L 11.765625 -11.765625 L 0 -11.765625 L 0 -70.578125 L 11.765625 -70.578125 L 11.765625 -82.328125 L 58.8125 -82.328125 L 58.8125 -70.578125 L 70.578125 -70.578125 L 70.578125 -35.28125 L 23.53125 -35.28125 L 23.53125 -11.765625 L 58.8125 -11.765625 L 58.8125 0 Z M 11.765625 0 "/></g></g></g><g fill="#00ffff" fill-opacity="1"><g transform="translate(490.915088, 158.41643)"><g><path d="M 11.765625 0 L 11.765625 -11.765625 L 0 -11.765625 L 0 -94.09375 L 11.765625 -94.09375 L 11.765625 -105.859375 L 58.8125 -105.859375 L 58.8125 -94.09375 L 70.578125 -94.09375 L 70.578125 -82.328125 L 47.046875 -82.328125 L 47.046875 -94.09375 L 23.53125 -94.09375 L 23.53125 -11.765625 L 47.046875 -11.765625 L 47.046875 -47.046875 L 35.28125 -47.046875 L 35.28125 -58.8125 L 70.578125 -58.8125 L 70.578125 0 Z M 11.765625 0 "/></g></g></g><g fill="#00ffff" fill-opacity="1"><g transform="translate(573.243817, 158.41643)"><g><path d="M 47.046875 -11.765625 L 47.046875 -35.28125 L 23.53125 -35.28125 L 23.53125 -11.765625 Z M 11.765625 0 L 11.765625 -11.765625 L 0 -11.765625 L 0 -35.28125 L 11.765625 -35.28125 L 11.765625 -47.046875 L 47.046875 -47.046875 L 47.046875 -70.578125 L 11.765625 -70.578125 L 11.765625 -82.328125 L 58.8125 -82.328125 L 58.8125 -70.578125 L 70.578125 -70.578125 L 70.578125 0 Z M 11.765625 0 "/></g></g></g><g fill="#00ffff" fill-opacity="1"><g transform="translate(655.572547, 158.41643)"><g><path d="M 0 0 L 0 -23.53125 L 11.765625 -23.53125 L 11.765625 -35.28125 L 23.53125 -35.28125 L 23.53125 -47.046875 L 35.28125 -47.046875 L 35.28125 -58.8125 L 47.046875 -58.8125 L 47.046875 -70.578125 L 0 -70.578125 L 0 -82.328125 L 70.578125 -82.328125 L 70.578125 -58.8125 L 58.8125 -58.8125 L 58.8125 -47.046875 L 47.046875 -47.046875 L 47.046875 -35.28125 L 35.28125 -35.28125 L 35.28125 -23.53125 L 23.53125 -23.53125 L 23.53125 -11.765625 L 70.578125 -11.765625 L 70.578125 0 Z M 0 0 "/></g></g></g><g fill="#00ffff" fill-opacity="1"><g transform="translate(737.901276, 158.41643)"><g><path d="M 47.046875 -47.046875 L 47.046875 -70.578125 L 23.53125 -70.578125 L 23.53125 -47.046875 Z M 11.765625 0 L 11.765625 -11.765625 L 0 -11.765625 L 0 -70.578125 L 11.765625 -70.578125 L 11.765625 -82.328125 L 58.8125 -82.328125 L 58.8125 -70.578125 L 70.578125 -70.578125 L 70.578125 -35.28125 L 23.53125 -35.28125 L 23.53125 -11.765625 L 58.8125 -11.765625 L 58.8125 0 Z M 11.765625 0 "/></g></g></g><g fill="#5e17eb" fill-opacity="1"><g transform="translate(495.569915, 165.064182)"><g><path d="M 11.765625 0 L 11.765625 -11.765625 L 0 -11.765625 L 0 -94.09375 L 11.765625 -94.09375 L 11.765625 -105.859375 L 58.8125 -105.859375 L 58.8125 -94.09375 L 70.578125 -94.09375 L 70.578125 -82.328125 L 47.046875 -82.328125 L 47.046875 -94.09375 L 23.53125 -94.09375 L 23.53125 -11.765625 L 47.046875 -11.765625 L 47.046875 -47.046875 L 35.28125 -47.046875 L 35.28125 -58.8125 L 70.578125 -58.8125 L 70.578125 0 Z M 11.765625 0 "/></g></g></g><g fill="#5e17eb" fill-opacity="1"><g transform="translate(577.898644, 165.064182)"><g><path d="M 47.046875 -11.765625 L 47.046875 -35.28125 L 23.53125 -35.28125 L 23.53125 -11.765625 Z M 11.765625 0 L 11.765625 -11.765625 L 0 -11.765625 L 0 -35.28125 L 11.765625 -35.28125 L 11.765625 -47.046875 L 47.046875 -47.046875 L 47.046875 -70.578125 L 11.765625 -70.578125 L 11.765625 -82.328125 L 58.8125 -82.328125 L 58.8125 -70.578125 L 70.578125 -70.578125 L 70.578125 0 Z M 11.765625 0 "/></g></g></g><g fill="#5e17eb" fill-opacity="1"><g transform="translate(660.227374, 165.064182)"><g><path d="M 0 0 L 0 -23.53125 L 11.765625 -23.53125 L 11.765625 -35.28125 L 23.53125 -35.28125 L 23.53125 -47.046875 L 35.28125 -47.046875 L 35.28125 -58.8125 L 47.046875 -58.8125 L 47.046875 -70.578125 L 0 -70.578125 L 0 -82.328125 L 70.578125 -82.328125 L 70.578125 -58.8125 L 58.8125 -58.8125 L 58.8125 -47.046875 L 47.046875 -47.046875 L 47.046875 -35.28125 L 35.28125 -35.28125 L 35.28125 -23.53125 L 23.53125 -23.53125 L 23.53125 -11.765625 L 70.578125 -11.765625 L 70.578125 0 Z M 0 0 "/></g></g></g><g fill="#5e17eb" fill-opacity="1"><g transform="translate(742.556103, 165.064182)"><g><path d="M 47.046875 -47.046875 L 47.046875 -70.578125 L 23.53125 -70.578125 L 23.53125 -47.046875 Z M 11.765625 0 L 11.765625 -11.765625 L 0 -11.765625 L 0 -70.578125 L 11.765625 -70.578125 L 11.765625 -82.328125 L 58.8125 -82.328125 L 58.8125 -70.578125 L 70.578125 -70.578125 L 70.578125 -35.28125 L 23.53125 -35.28125 L 23.53125 -11.765625 L 58.8125 -11.765625 L 58.8125 0 Z M 11.765625 0 "/></g></g></g></svg>