<svg xmlns="http://www.w3.org/2000/svg" xmlns:xlink="http://www.w3.org/1999/xlink" width="1500" zoomAndPan="magnify" viewBox="0 0 1125 374.999991" height="500" preserveAspectRatio="xMidYMid meet" version="1.0"><defs><g/></defs><g fill="#312e81" fill-opacity="0.4"><g transform="translate(44.556954, 242.072751)"><g><path d="M 42.46875 -42.46875 L 42.46875 -84.9375 L 21.234375 -84.9375 L 21.234375 -42.46875 Z M 0 0 L 0 -84.9375 L 10.609375 -84.9375 L 10.609375 -95.546875 L 53.078125 -95.546875 L 53.078125 -84.9375 L 63.703125 -84.9375 L 63.703125 0 L 42.46875 0 L 42.46875 -31.84375 L 21.234375 -31.84375 L 21.234375 0 Z M 0 0 "/></g></g></g><g fill="#312e81" fill-opacity="0.4"><g transform="translate(118.871811, 242.072751)"><g><path d="M 10.609375 0 L 10.609375 -10.609375 L 0 -10.609375 L 0 -63.703125 L 10.609375 -63.703125 L 10.609375 -74.3125 L 53.078125 -74.3125 L 53.078125 -63.703125 L 21.234375 -63.703125 L 21.234375 -10.609375 L 53.078125 -10.609375 L 53.078125 0 Z M 10.609375 0 "/></g></g></g><g fill="#312e81" fill-opacity="0.4"><g transform="translate(182.57026, 242.072751)"><g><path d="M 10.609375 0 L 10.609375 -10.609375 L 0 -10.609375 L 0 -95.546875 L 21.234375 -95.546875 L 21.234375 -74.3125 L 42.46875 -74.3125 L 42.46875 -63.703125 L 21.234375 -63.703125 L 21.234375 -10.609375 L 42.46875 -10.609375 L 42.46875 0 Z M 10.609375 0 "/></g></g></g><g fill="#312e81" fill-opacity="0.4"><g transform="translate(235.652301, 242.072751)"><g><path d="M 10.609375 0 L 10.609375 -63.703125 L 0 -63.703125 L 0 -74.3125 L 31.84375 -74.3125 L 31.84375 0 Z M 10.609375 -84.9375 L 10.609375 -106.15625 L 31.84375 -106.15625 L 31.84375 -84.9375 Z M 10.609375 -84.9375 "/></g></g></g><g fill="#312e81" fill-opacity="0.4"><g transform="translate(278.117935, 242.072751)"><g><path d="M 21.234375 0 L 21.234375 -10.609375 L 10.609375 -10.609375 L 10.609375 -31.84375 L 0 -31.84375 L 0 -74.3125 L 21.234375 -74.3125 L 21.234375 -21.234375 L 42.46875 -21.234375 L 42.46875 -74.3125 L 63.703125 -74.3125 L 63.703125 -31.84375 L 53.078125 -31.84375 L 53.078125 -10.609375 L 42.46875 -10.609375 L 42.46875 0 Z M 21.234375 0 "/></g></g></g><g fill="#312e81" fill-opacity="0.4"><g transform="translate(352.432792, 242.072751)"><g><path d="M 42.46875 -42.46875 L 42.46875 -63.703125 L 21.234375 -63.703125 L 21.234375 -42.46875 Z M 10.609375 0 L 10.609375 -10.609375 L 0 -10.609375 L 0 -63.703125 L 10.609375 -63.703125 L 10.609375 -74.3125 L 53.078125 -74.3125 L 53.078125 -63.703125 L 63.703125 -63.703125 L 63.703125 -31.84375 L 21.234375 -31.84375 L 21.234375 -10.609375 L 53.078125 -10.609375 L 53.078125 0 Z M 10.609375 0 "/></g></g></g><g fill="#312e81" fill-opacity="0.4"><g transform="translate(426.747649, 242.072751)"><g/></g></g><g fill="#312e81" fill-opacity="0.4"><g transform="translate(458.596874, 242.072751)"><g><path d="M 0 0 L 0 -95.546875 L 21.234375 -95.546875 L 21.234375 -84.9375 L 31.84375 -84.9375 L 31.84375 -63.703125 L 42.46875 -63.703125 L 42.46875 -84.9375 L 53.078125 -84.9375 L 53.078125 -95.546875 L 74.3125 -95.546875 L 74.3125 0 L 53.078125 0 L 53.078125 -53.078125 L 42.46875 -53.078125 L 42.46875 -31.84375 L 31.84375 -31.84375 L 31.84375 -53.078125 L 21.234375 -53.078125 L 21.234375 0 Z M 0 0 "/></g></g></g><g fill="#312e81" fill-opacity="0.4"><g transform="translate(543.528139, 242.072751)"><g><path d="M 42.46875 -10.609375 L 42.46875 -63.703125 L 21.234375 -63.703125 L 21.234375 -10.609375 Z M 10.609375 0 L 10.609375 -10.609375 L 0 -10.609375 L 0 -63.703125 L 10.609375 -63.703125 L 10.609375 -74.3125 L 53.078125 -74.3125 L 53.078125 -63.703125 L 63.703125 -63.703125 L 63.703125 -10.609375 L 53.078125 -10.609375 L 53.078125 0 Z M 10.609375 0 "/></g></g></g><g fill="#312e81" fill-opacity="0.4"><g transform="translate(617.842997, 242.072751)"><g><path d="M 42.46875 -10.609375 L 42.46875 -63.703125 L 21.234375 -63.703125 L 21.234375 -10.609375 Z M 10.609375 0 L 10.609375 -10.609375 L 0 -10.609375 L 0 -63.703125 L 10.609375 -63.703125 L 10.609375 -74.3125 L 42.46875 -74.3125 L 42.46875 -106.15625 L 63.703125 -106.15625 L 63.703125 0 Z M 10.609375 0 "/></g></g></g><g fill="#312e81" fill-opacity="0.4"><g transform="translate(692.157854, 242.072751)"><g><path d="M 42.46875 -42.46875 L 42.46875 -63.703125 L 21.234375 -63.703125 L 21.234375 -42.46875 Z M 10.609375 0 L 10.609375 -10.609375 L 0 -10.609375 L 0 -63.703125 L 10.609375 -63.703125 L 10.609375 -74.3125 L 53.078125 -74.3125 L 53.078125 -63.703125 L 63.703125 -63.703125 L 63.703125 -31.84375 L 21.234375 -31.84375 L 21.234375 -10.609375 L 53.078125 -10.609375 L 53.078125 0 Z M 10.609375 0 "/></g></g></g><g fill="#312e81" fill-opacity="0.4"><g transform="translate(766.472711, 242.072751)"><g><path d="M 0 0 L 0 -95.546875 L -10.609375 -95.546875 L -10.609375 -106.15625 L 21.234375 -106.15625 L 21.234375 0 Z M 0 0 "/></g></g></g><g fill="#312e81" fill-opacity="0.4"><g transform="translate(798.321936, 242.072751)"><g><path d="M 0 0 L 0 -10.609375 L 31.84375 -10.609375 L 31.84375 -31.84375 L 10.609375 -31.84375 L 10.609375 -42.46875 L 0 -42.46875 L 0 -63.703125 L 10.609375 -63.703125 L 10.609375 -74.3125 L 53.078125 -74.3125 L 53.078125 -63.703125 L 21.234375 -63.703125 L 21.234375 -42.46875 L 42.46875 -42.46875 L 42.46875 -31.84375 L 53.078125 -31.84375 L 53.078125 -10.609375 L 42.46875 -10.609375 L 42.46875 0 Z M 0 0 "/></g></g></g><g fill="#312e81" fill-opacity="1"><g transform="translate(37.500011, 235.015808)"><g><path d="M 42.46875 -42.46875 L 42.46875 -84.9375 L 21.234375 -84.9375 L 21.234375 -42.46875 Z M 0 0 L 0 -84.9375 L 10.609375 -84.9375 L 10.609375 -95.546875 L 53.078125 -95.546875 L 53.078125 -84.9375 L 63.703125 -84.9375 L 63.703125 0 L 42.46875 0 L 42.46875 -31.84375 L 21.234375 -31.84375 L 21.234375 0 Z M 0 0 "/></g></g></g><g fill="#312e81" fill-opacity="1"><g transform="translate(111.814868, 235.015808)"><g><path d="M 10.609375 0 L 10.609375 -10.609375 L 0 -10.609375 L 0 -63.703125 L 10.609375 -63.703125 L 10.609375 -74.3125 L 53.078125 -74.3125 L 53.078125 -63.703125 L 21.234375 -63.703125 L 21.234375 -10.609375 L 53.078125 -10.609375 L 53.078125 0 Z M 10.609375 0 "/></g></g></g><g fill="#312e81" fill-opacity="1"><g transform="translate(175.513318, 235.015808)"><g><path d="M 10.609375 0 L 10.609375 -10.609375 L 0 -10.609375 L 0 -95.546875 L 21.234375 -95.546875 L 21.234375 -74.3125 L 42.46875 -74.3125 L 42.46875 -63.703125 L 21.234375 -63.703125 L 21.234375 -10.609375 L 42.46875 -10.609375 L 42.46875 0 Z M 10.609375 0 "/></g></g></g><g fill="#312e81" fill-opacity="1"><g transform="translate(228.595359, 235.015808)"><g><path d="M 10.609375 0 L 10.609375 -63.703125 L 0 -63.703125 L 0 -74.3125 L 31.84375 -74.3125 L 31.84375 0 Z M 10.609375 -84.9375 L 10.609375 -106.15625 L 31.84375 -106.15625 L 31.84375 -84.9375 Z M 10.609375 -84.9375 "/></g></g></g><g fill="#312e81" fill-opacity="1"><g transform="translate(271.060992, 235.015808)"><g><path d="M 21.234375 0 L 21.234375 -10.609375 L 10.609375 -10.609375 L 10.609375 -31.84375 L 0 -31.84375 L 0 -74.3125 L 21.234375 -74.3125 L 21.234375 -21.234375 L 42.46875 -21.234375 L 42.46875 -74.3125 L 63.703125 -74.3125 L 63.703125 -31.84375 L 53.078125 -31.84375 L 53.078125 -10.609375 L 42.46875 -10.609375 L 42.46875 0 Z M 21.234375 0 "/></g></g></g><g fill="#312e81" fill-opacity="1"><g transform="translate(345.375849, 235.015808)"><g><path d="M 42.46875 -42.46875 L 42.46875 -63.703125 L 21.234375 -63.703125 L 21.234375 -42.46875 Z M 10.609375 0 L 10.609375 -10.609375 L 0 -10.609375 L 0 -63.703125 L 10.609375 -63.703125 L 10.609375 -74.3125 L 53.078125 -74.3125 L 53.078125 -63.703125 L 63.703125 -63.703125 L 63.703125 -31.84375 L 21.234375 -31.84375 L 21.234375 -10.609375 L 53.078125 -10.609375 L 53.078125 0 Z M 10.609375 0 "/></g></g></g><g fill="#312e81" fill-opacity="1"><g transform="translate(419.690706, 235.015808)"><g/></g></g><g fill="#312e81" fill-opacity="1"><g transform="translate(451.539931, 235.015808)"><g><path d="M 0 0 L 0 -95.546875 L 21.234375 -95.546875 L 21.234375 -84.9375 L 31.84375 -84.9375 L 31.84375 -63.703125 L 42.46875 -63.703125 L 42.46875 -84.9375 L 53.078125 -84.9375 L 53.078125 -95.546875 L 74.3125 -95.546875 L 74.3125 0 L 53.078125 0 L 53.078125 -53.078125 L 42.46875 -53.078125 L 42.46875 -31.84375 L 31.84375 -31.84375 L 31.84375 -53.078125 L 21.234375 -53.078125 L 21.234375 0 Z M 0 0 "/></g></g></g><g fill="#312e81" fill-opacity="1"><g transform="translate(536.471197, 235.015808)"><g><path d="M 42.46875 -10.609375 L 42.46875 -63.703125 L 21.234375 -63.703125 L 21.234375 -10.609375 Z M 10.609375 0 L 10.609375 -10.609375 L 0 -10.609375 L 0 -63.703125 L 10.609375 -63.703125 L 10.609375 -74.3125 L 53.078125 -74.3125 L 53.078125 -63.703125 L 63.703125 -63.703125 L 63.703125 -10.609375 L 53.078125 -10.609375 L 53.078125 0 Z M 10.609375 0 "/></g></g></g><g fill="#312e81" fill-opacity="1"><g transform="translate(610.786054, 235.015808)"><g><path d="M 42.46875 -10.609375 L 42.46875 -63.703125 L 21.234375 -63.703125 L 21.234375 -10.609375 Z M 10.609375 0 L 10.609375 -10.609375 L 0 -10.609375 L 0 -63.703125 L 10.609375 -63.703125 L 10.609375 -74.3125 L 42.46875 -74.3125 L 42.46875 -106.15625 L 63.703125 -106.15625 L 63.703125 0 Z M 10.609375 0 "/></g></g></g><g fill="#312e81" fill-opacity="1"><g transform="translate(685.100911, 235.015808)"><g><path d="M 42.46875 -42.46875 L 42.46875 -63.703125 L 21.234375 -63.703125 L 21.234375 -42.46875 Z M 10.609375 0 L 10.609375 -10.609375 L 0 -10.609375 L 0 -63.703125 L 10.609375 -63.703125 L 10.609375 -74.3125 L 53.078125 -74.3125 L 53.078125 -63.703125 L 63.703125 -63.703125 L 63.703125 -31.84375 L 21.234375 -31.84375 L 21.234375 -10.609375 L 53.078125 -10.609375 L 53.078125 0 Z M 10.609375 0 "/></g></g></g><g fill="#312e81" fill-opacity="1"><g transform="translate(759.415768, 235.015808)"><g><path d="M 0 0 L 0 -95.546875 L -10.609375 -95.546875 L -10.609375 -106.15625 L 21.234375 -106.15625 L 21.234375 0 Z M 0 0 "/></g></g></g><g fill="#312e81" fill-opacity="1"><g transform="translate(791.264993, 235.015808)"><g><path d="M 0 0 L 0 -10.609375 L 31.84375 -10.609375 L 31.84375 -31.84375 L 10.609375 -31.84375 L 10.609375 -42.46875 L 0 -42.46875 L 0 -63.703125 L 10.609375 -63.703125 L 10.609375 -74.3125 L 53.078125 -74.3125 L 53.078125 -63.703125 L 21.234375 -63.703125 L 21.234375 -42.46875 L 42.46875 -42.46875 L 42.46875 -31.84375 L 53.078125 -31.84375 L 53.078125 -10.609375 L 42.46875 -10.609375 L 42.46875 0 Z M 0 0 "/></g></g></g></svg>