<svg xmlns="http://www.w3.org/2000/svg" xmlns:xlink="http://www.w3.org/1999/xlink" zoomAndPan="magnify" preserveAspectRatio="xMidYMid meet" version="1.0" viewBox="7.5 35.58 291.27 74.58"><defs><g/></defs><g fill="#312e81" fill-opacity="0.4"><g transform="translate(12.146387, 110.15004)"><g><path d="M 0 0 L 0 -62.90625 L 13.984375 -62.90625 L 13.984375 -55.921875 L 20.96875 -55.921875 L 20.96875 -41.9375 L 27.96875 -41.9375 L 27.96875 -55.921875 L 34.953125 -55.921875 L 34.953125 -62.90625 L 48.9375 -62.90625 L 48.9375 0 L 34.953125 0 L 34.953125 -34.953125 L 27.96875 -34.953125 L 27.96875 -20.96875 L 20.96875 -20.96875 L 20.96875 -34.953125 L 13.984375 -34.953125 L 13.984375 0 Z M 0 0 "/></g></g></g><g fill="#312e81" fill-opacity="0.4"><g transform="translate(68.067279, 110.15004)"><g><path d="M 27.96875 -6.984375 L 27.96875 -41.9375 L 13.984375 -41.9375 L 13.984375 -6.984375 Z M 6.984375 0 L 6.984375 -6.984375 L 0 -6.984375 L 0 -41.9375 L 6.984375 -41.9375 L 6.984375 -48.9375 L 34.953125 -48.9375 L 34.953125 -41.9375 L 41.9375 -41.9375 L 41.9375 -6.984375 L 34.953125 -6.984375 L 34.953125 0 Z M 6.984375 0 "/></g></g></g><g fill="#312e81" fill-opacity="0.4"><g transform="translate(116.99806, 110.15004)"><g><path d="M 27.96875 -6.984375 L 27.96875 -41.9375 L 13.984375 -41.9375 L 13.984375 -6.984375 Z M 6.984375 0 L 6.984375 -6.984375 L 0 -6.984375 L 0 -41.9375 L 6.984375 -41.9375 L 6.984375 -48.9375 L 27.96875 -48.9375 L 27.96875 -69.90625 L 41.9375 -69.90625 L 41.9375 0 Z M 6.984375 0 "/></g></g></g><g fill="#312e81" fill-opacity="0.4"><g transform="translate(165.928841, 110.15004)"><g><path d="M 6.984375 0 L 6.984375 -6.984375 L 0 -6.984375 L 0 -48.9375 L 13.984375 -48.9375 L 13.984375 -6.984375 L 27.96875 -6.984375 L 27.96875 -48.9375 L 41.9375 -48.9375 L 41.9375 0 Z M 6.984375 0 "/></g></g></g><g fill="#312e81" fill-opacity="0.4"><g transform="translate(214.859622, 110.15004)"><g><path d="M 0 0 L 0 -62.90625 L -6.984375 -62.90625 L -6.984375 -69.90625 L 13.984375 -69.90625 L 13.984375 0 Z M 0 0 "/></g></g></g><g fill="#312e81" fill-opacity="0.4"><g transform="translate(235.829956, 110.15004)"><g><path d="M 27.96875 -6.984375 L 27.96875 -41.9375 L 13.984375 -41.9375 L 13.984375 -6.984375 Z M 6.984375 0 L 6.984375 -6.984375 L 0 -6.984375 L 0 -41.9375 L 6.984375 -41.9375 L 6.984375 -48.9375 L 34.953125 -48.9375 L 34.953125 -41.9375 L 41.9375 -41.9375 L 41.9375 -6.984375 L 34.953125 -6.984375 L 34.953125 0 Z M 6.984375 0 "/></g></g></g><g fill="#312e81" fill-opacity="0.4"><g transform="translate(284.760737, 110.15004)"><g><path d="M 0 0 L 0 -13.984375 L 13.984375 -13.984375 L 13.984375 0 Z M 0 0 "/></g></g></g><g fill="#ffffff" fill-opacity="1"><g transform="translate(7.500003, 105.503656)"><g><path d="M 0 0 L 0 -62.90625 L 13.984375 -62.90625 L 13.984375 -55.921875 L 20.96875 -55.921875 L 20.96875 -41.9375 L 27.96875 -41.9375 L 27.96875 -55.921875 L 34.953125 -55.921875 L 34.953125 -62.90625 L 48.9375 -62.90625 L 48.9375 0 L 34.953125 0 L 34.953125 -34.953125 L 27.96875 -34.953125 L 27.96875 -20.96875 L 20.96875 -20.96875 L 20.96875 -34.953125 L 13.984375 -34.953125 L 13.984375 0 Z M 0 0 "/></g></g></g><g fill="#ffffff" fill-opacity="1"><g transform="translate(63.420896, 105.503656)"><g><path d="M 27.96875 -6.984375 L 27.96875 -41.9375 L 13.984375 -41.9375 L 13.984375 -6.984375 Z M 6.984375 0 L 6.984375 -6.984375 L 0 -6.984375 L 0 -41.9375 L 6.984375 -41.9375 L 6.984375 -48.9375 L 34.953125 -48.9375 L 34.953125 -41.9375 L 41.9375 -41.9375 L 41.9375 -6.984375 L 34.953125 -6.984375 L 34.953125 0 Z M 6.984375 0 "/></g></g></g><g fill="#ffffff" fill-opacity="1"><g transform="translate(112.351677, 105.503656)"><g><path d="M 27.96875 -6.984375 L 27.96875 -41.9375 L 13.984375 -41.9375 L 13.984375 -6.984375 Z M 6.984375 0 L 6.984375 -6.984375 L 0 -6.984375 L 0 -41.9375 L 6.984375 -41.9375 L 6.984375 -48.9375 L 27.96875 -48.9375 L 27.96875 -69.90625 L 41.9375 -69.90625 L 41.9375 0 Z M 6.984375 0 "/></g></g></g><g fill="#ffffff" fill-opacity="1"><g transform="translate(161.282457, 105.503656)"><g><path d="M 6.984375 0 L 6.984375 -6.984375 L 0 -6.984375 L 0 -48.9375 L 13.984375 -48.9375 L 13.984375 -6.984375 L 27.96875 -6.984375 L 27.96875 -48.9375 L 41.9375 -48.9375 L 41.9375 0 Z M 6.984375 0 "/></g></g></g><g fill="#ffffff" fill-opacity="1"><g transform="translate(210.213238, 105.503656)"><g><path d="M 0 0 L 0 -62.90625 L -6.984375 -62.90625 L -6.984375 -69.90625 L 13.984375 -69.90625 L 13.984375 0 Z M 0 0 "/></g></g></g><g fill="#ffffff" fill-opacity="1"><g transform="translate(231.183572, 105.503656)"><g><path d="M 27.96875 -6.984375 L 27.96875 -41.9375 L 13.984375 -41.9375 L 13.984375 -6.984375 Z M 6.984375 0 L 6.984375 -6.984375 L 0 -6.984375 L 0 -41.9375 L 6.984375 -41.9375 L 6.984375 -48.9375 L 34.953125 -48.9375 L 34.953125 -41.9375 L 41.9375 -41.9375 L 41.9375 -6.984375 L 34.953125 -6.984375 L 34.953125 0 Z M 6.984375 0 "/></g></g></g><g fill="#ffffff" fill-opacity="1"><g transform="translate(280.114353, 105.503656)"><g><path d="M 0 0 L 0 -13.984375 L 13.984375 -13.984375 L 13.984375 0 Z M 0 0 "/></g></g></g></svg>