<svg xmlns="http://www.w3.org/2000/svg" xmlns:xlink="http://www.w3.org/1999/xlink" width="1300" zoomAndPan="magnify" viewBox="0 0 974.88 225" height="300" preserveAspectRatio="xMidYMid meet" version="1.0"><defs><g/></defs><g fill="#312e81" fill-opacity="0.4"><g transform="translate(7.817596, 172.955063)"><g><path d="M 0 0 L 0 -11.765625 L 11.765625 -11.765625 L 11.765625 -94.09375 L 0 -94.09375 L 0 -105.84375 L 47.046875 -105.84375 L 47.046875 -94.09375 L 35.28125 -94.09375 L 35.28125 -11.765625 L 47.046875 -11.765625 L 47.046875 0 Z M 0 0 "/></g></g></g><g fill="#312e81" fill-opacity="0.4"><g transform="translate(66.621254, 172.955063)"><g><path d="M 0 0 L 0 -82.328125 L 58.796875 -82.328125 L 58.796875 -70.5625 L 70.5625 -70.5625 L 70.5625 0 L 47.046875 0 L 47.046875 -70.5625 L 23.515625 -70.5625 L 23.515625 0 Z M 0 0 "/></g></g></g><g fill="#312e81" fill-opacity="0.4"><g transform="translate(148.946375, 172.955063)"><g><path d="M 11.765625 0 L 11.765625 -11.765625 L 0 -11.765625 L 0 -105.84375 L 23.515625 -105.84375 L 23.515625 -82.328125 L 47.046875 -82.328125 L 47.046875 -70.5625 L 23.515625 -70.5625 L 23.515625 -11.765625 L 47.046875 -11.765625 L 47.046875 0 Z M 11.765625 0 "/></g></g></g><g fill="#312e81" fill-opacity="0.4"><g transform="translate(207.750033, 172.955063)"><g><path d="M 47.046875 -47.046875 L 47.046875 -70.5625 L 23.515625 -70.5625 L 23.515625 -47.046875 Z M 11.765625 0 L 11.765625 -11.765625 L 0 -11.765625 L 0 -70.5625 L 11.765625 -70.5625 L 11.765625 -82.328125 L 58.796875 -82.328125 L 58.796875 -70.5625 L 70.5625 -70.5625 L 70.5625 -35.28125 L 23.515625 -35.28125 L 23.515625 -11.765625 L 58.796875 -11.765625 L 58.796875 0 Z M 11.765625 0 "/></g></g></g><g fill="#312e81" fill-opacity="0.4"><g transform="translate(290.075154, 172.955063)"><g><path d="M 47.046875 -11.765625 L 47.046875 -70.5625 L 23.515625 -70.5625 L 23.515625 -11.765625 Z M 11.765625 35.28125 L 11.765625 23.515625 L 47.046875 23.515625 L 47.046875 0 L 11.765625 0 L 11.765625 -11.765625 L 0 -11.765625 L 0 -70.5625 L 11.765625 -70.5625 L 11.765625 -82.328125 L 70.5625 -82.328125 L 70.5625 23.515625 L 58.796875 23.515625 L 58.796875 35.28125 Z M 11.765625 35.28125 "/></g></g></g><g fill="#312e81" fill-opacity="0.4"><g transform="translate(372.400275, 172.955063)"><g><path d="M 0 0 L 0 -82.328125 L 23.515625 -82.328125 L 23.515625 -58.796875 L 35.28125 -58.796875 L 35.28125 -47.046875 L 23.515625 -47.046875 L 23.515625 0 Z M 35.28125 -58.796875 L 35.28125 -82.328125 L 58.796875 -82.328125 L 58.796875 -58.796875 Z M 35.28125 -58.796875 "/></g></g></g><g fill="#312e81" fill-opacity="0.4"><g transform="translate(442.964666, 172.955063)"><g><path d="M 47.046875 -11.765625 L 47.046875 -35.28125 L 23.515625 -35.28125 L 23.515625 -11.765625 Z M 11.765625 0 L 11.765625 -11.765625 L 0 -11.765625 L 0 -35.28125 L 11.765625 -35.28125 L 11.765625 -47.046875 L 47.046875 -47.046875 L 47.046875 -70.5625 L 11.765625 -70.5625 L 11.765625 -82.328125 L 58.796875 -82.328125 L 58.796875 -70.5625 L 70.5625 -70.5625 L 70.5625 0 Z M 11.765625 0 "/></g></g></g><g fill="#312e81" fill-opacity="0.4"><g transform="translate(525.289787, 172.955063)"><g><path d="M 11.765625 0 L 11.765625 -11.765625 L 0 -11.765625 L 0 -105.84375 L 23.515625 -105.84375 L 23.515625 -82.328125 L 47.046875 -82.328125 L 47.046875 -70.5625 L 23.515625 -70.5625 L 23.515625 -11.765625 L 47.046875 -11.765625 L 47.046875 0 Z M 11.765625 0 "/></g></g></g><g fill="#312e81" fill-opacity="0.4"><g transform="translate(584.093445, 172.955063)"><g><path d="M 11.765625 0 L 11.765625 -70.5625 L 0 -70.5625 L 0 -82.328125 L 35.28125 -82.328125 L 35.28125 0 Z M 11.765625 -94.09375 L 11.765625 -117.609375 L 35.28125 -117.609375 L 35.28125 -94.09375 Z M 11.765625 -94.09375 "/></g></g></g><g fill="#312e81" fill-opacity="0.4"><g transform="translate(631.136372, 172.955063)"><g><path d="M 47.046875 -11.765625 L 47.046875 -70.5625 L 23.515625 -70.5625 L 23.515625 -11.765625 Z M 11.765625 0 L 11.765625 -11.765625 L 0 -11.765625 L 0 -70.5625 L 11.765625 -70.5625 L 11.765625 -82.328125 L 58.796875 -82.328125 L 58.796875 -70.5625 L 70.5625 -70.5625 L 70.5625 -11.765625 L 58.796875 -11.765625 L 58.796875 0 Z M 11.765625 0 "/></g></g></g><g fill="#312e81" fill-opacity="0.4"><g transform="translate(713.461493, 172.955063)"><g><path d="M 0 0 L 0 -82.328125 L 58.796875 -82.328125 L 58.796875 -70.5625 L 70.5625 -70.5625 L 70.5625 0 L 47.046875 0 L 47.046875 -70.5625 L 23.515625 -70.5625 L 23.515625 0 Z M 0 0 "/></g></g></g><g fill="#312e81" fill-opacity="0.4"><g transform="translate(795.786614, 172.955063)"><g><path d="M 0 0 L 0 -11.765625 L 35.28125 -11.765625 L 35.28125 -35.28125 L 11.765625 -35.28125 L 11.765625 -47.046875 L 0 -47.046875 L 0 -70.5625 L 11.765625 -70.5625 L 11.765625 -82.328125 L 58.796875 -82.328125 L 58.796875 -70.5625 L 23.515625 -70.5625 L 23.515625 -47.046875 L 47.046875 -47.046875 L 47.046875 -35.28125 L 58.796875 -35.28125 L 58.796875 -11.765625 L 47.046875 -11.765625 L 47.046875 0 Z M 0 0 "/></g></g></g><g fill="#312e81" fill-opacity="1"><g transform="translate(0, 165.137467)"><g><path d="M 0 0 L 0 -11.765625 L 11.765625 -11.765625 L 11.765625 -94.09375 L 0 -94.09375 L 0 -105.84375 L 47.046875 -105.84375 L 47.046875 -94.09375 L 35.28125 -94.09375 L 35.28125 -11.765625 L 47.046875 -11.765625 L 47.046875 0 Z M 0 0 "/></g></g></g><g fill="#312e81" fill-opacity="1"><g transform="translate(58.803658, 165.137467)"><g><path d="M 0 0 L 0 -82.328125 L 58.796875 -82.328125 L 58.796875 -70.5625 L 70.5625 -70.5625 L 70.5625 0 L 47.046875 0 L 47.046875 -70.5625 L 23.515625 -70.5625 L 23.515625 0 Z M 0 0 "/></g></g></g><g fill="#312e81" fill-opacity="1"><g transform="translate(141.128779, 165.137467)"><g><path d="M 11.765625 0 L 11.765625 -11.765625 L 0 -11.765625 L 0 -105.84375 L 23.515625 -105.84375 L 23.515625 -82.328125 L 47.046875 -82.328125 L 47.046875 -70.5625 L 23.515625 -70.5625 L 23.515625 -11.765625 L 47.046875 -11.765625 L 47.046875 0 Z M 11.765625 0 "/></g></g></g><g fill="#312e81" fill-opacity="1"><g transform="translate(199.932437, 165.137467)"><g><path d="M 47.046875 -47.046875 L 47.046875 -70.5625 L 23.515625 -70.5625 L 23.515625 -47.046875 Z M 11.765625 0 L 11.765625 -11.765625 L 0 -11.765625 L 0 -70.5625 L 11.765625 -70.5625 L 11.765625 -82.328125 L 58.796875 -82.328125 L 58.796875 -70.5625 L 70.5625 -70.5625 L 70.5625 -35.28125 L 23.515625 -35.28125 L 23.515625 -11.765625 L 58.796875 -11.765625 L 58.796875 0 Z M 11.765625 0 "/></g></g></g><g fill="#312e81" fill-opacity="1"><g transform="translate(282.257558, 165.137467)"><g><path d="M 47.046875 -11.765625 L 47.046875 -70.5625 L 23.515625 -70.5625 L 23.515625 -11.765625 Z M 11.765625 35.28125 L 11.765625 23.515625 L 47.046875 23.515625 L 47.046875 0 L 11.765625 0 L 11.765625 -11.765625 L 0 -11.765625 L 0 -70.5625 L 11.765625 -70.5625 L 11.765625 -82.328125 L 70.5625 -82.328125 L 70.5625 23.515625 L 58.796875 23.515625 L 58.796875 35.28125 Z M 11.765625 35.28125 "/></g></g></g><g fill="#312e81" fill-opacity="1"><g transform="translate(364.582679, 165.137467)"><g><path d="M 0 0 L 0 -82.328125 L 23.515625 -82.328125 L 23.515625 -58.796875 L 35.28125 -58.796875 L 35.28125 -47.046875 L 23.515625 -47.046875 L 23.515625 0 Z M 35.28125 -58.796875 L 35.28125 -82.328125 L 58.796875 -82.328125 L 58.796875 -58.796875 Z M 35.28125 -58.796875 "/></g></g></g><g fill="#312e81" fill-opacity="1"><g transform="translate(435.14707, 165.137467)"><g><path d="M 47.046875 -11.765625 L 47.046875 -35.28125 L 23.515625 -35.28125 L 23.515625 -11.765625 Z M 11.765625 0 L 11.765625 -11.765625 L 0 -11.765625 L 0 -35.28125 L 11.765625 -35.28125 L 11.765625 -47.046875 L 47.046875 -47.046875 L 47.046875 -70.5625 L 11.765625 -70.5625 L 11.765625 -82.328125 L 58.796875 -82.328125 L 58.796875 -70.5625 L 70.5625 -70.5625 L 70.5625 0 Z M 11.765625 0 "/></g></g></g><g fill="#312e81" fill-opacity="1"><g transform="translate(517.472191, 165.137467)"><g><path d="M 11.765625 0 L 11.765625 -11.765625 L 0 -11.765625 L 0 -105.84375 L 23.515625 -105.84375 L 23.515625 -82.328125 L 47.046875 -82.328125 L 47.046875 -70.5625 L 23.515625 -70.5625 L 23.515625 -11.765625 L 47.046875 -11.765625 L 47.046875 0 Z M 11.765625 0 "/></g></g></g><g fill="#312e81" fill-opacity="1"><g transform="translate(576.275849, 165.137467)"><g><path d="M 11.765625 0 L 11.765625 -70.5625 L 0 -70.5625 L 0 -82.328125 L 35.28125 -82.328125 L 35.28125 0 Z M 11.765625 -94.09375 L 11.765625 -117.609375 L 35.28125 -117.609375 L 35.28125 -94.09375 Z M 11.765625 -94.09375 "/></g></g></g><g fill="#312e81" fill-opacity="1"><g transform="translate(623.318776, 165.137467)"><g><path d="M 47.046875 -11.765625 L 47.046875 -70.5625 L 23.515625 -70.5625 L 23.515625 -11.765625 Z M 11.765625 0 L 11.765625 -11.765625 L 0 -11.765625 L 0 -70.5625 L 11.765625 -70.5625 L 11.765625 -82.328125 L 58.796875 -82.328125 L 58.796875 -70.5625 L 70.5625 -70.5625 L 70.5625 -11.765625 L 58.796875 -11.765625 L 58.796875 0 Z M 11.765625 0 "/></g></g></g><g fill="#312e81" fill-opacity="1"><g transform="translate(705.643897, 165.137467)"><g><path d="M 0 0 L 0 -82.328125 L 58.796875 -82.328125 L 58.796875 -70.5625 L 70.5625 -70.5625 L 70.5625 0 L 47.046875 0 L 47.046875 -70.5625 L 23.515625 -70.5625 L 23.515625 0 Z M 0 0 "/></g></g></g><g fill="#312e81" fill-opacity="1"><g transform="translate(787.969018, 165.137467)"><g><path d="M 0 0 L 0 -11.765625 L 35.28125 -11.765625 L 35.28125 -35.28125 L 11.765625 -35.28125 L 11.765625 -47.046875 L 0 -47.046875 L 0 -70.5625 L 11.765625 -70.5625 L 11.765625 -82.328125 L 58.796875 -82.328125 L 58.796875 -70.5625 L 23.515625 -70.5625 L 23.515625 -47.046875 L 47.046875 -47.046875 L 47.046875 -35.28125 L 58.796875 -35.28125 L 58.796875 -11.765625 L 47.046875 -11.765625 L 47.046875 0 Z M 0 0 "/></g></g></g></svg>