<svg xmlns="http://www.w3.org/2000/svg" xmlns:xlink="http://www.w3.org/1999/xlink" width="1300" zoomAndPan="magnify" viewBox="0 0 974.88 225" height="300" preserveAspectRatio="xMidYMid meet" version="1.0"><defs><g/></defs><g fill="#312e81" fill-opacity="0.4"><g transform="translate(7.817596, 172.955063)"><g><path d="M 0 0 L 0 -105.84375 L 23.515625 -105.84375 L 23.515625 -94.09375 L 35.28125 -94.09375 L 35.28125 -70.5625 L 47.046875 -70.5625 L 47.046875 -94.09375 L 58.796875 -94.09375 L 58.796875 -105.84375 L 82.328125 -105.84375 L 82.328125 0 L 58.796875 0 L 58.796875 -58.796875 L 47.046875 -58.796875 L 47.046875 -35.28125 L 35.28125 -35.28125 L 35.28125 -58.796875 L 23.515625 -58.796875 L 23.515625 0 Z M 0 0 "/></g></g></g><g fill="#312e81" fill-opacity="0.4"><g transform="translate(101.903449, 172.955063)"><g><path d="M 47.046875 -11.765625 L 47.046875 -70.5625 L 23.515625 -70.5625 L 23.515625 -11.765625 Z M 11.765625 0 L 11.765625 -11.765625 L 0 -11.765625 L 0 -70.5625 L 11.765625 -70.5625 L 11.765625 -82.328125 L 58.796875 -82.328125 L 58.796875 -70.5625 L 70.5625 -70.5625 L 70.5625 -11.765625 L 58.796875 -11.765625 L 58.796875 0 Z M 11.765625 0 "/></g></g></g><g fill="#312e81" fill-opacity="0.4"><g transform="translate(184.22857, 172.955063)"><g><path d="M 47.046875 -11.765625 L 47.046875 -70.5625 L 23.515625 -70.5625 L 23.515625 -11.765625 Z M 11.765625 0 L 11.765625 -11.765625 L 0 -11.765625 L 0 -70.5625 L 11.765625 -70.5625 L 11.765625 -82.328125 L 47.046875 -82.328125 L 47.046875 -117.609375 L 70.5625 -117.609375 L 70.5625 0 Z M 11.765625 0 "/></g></g></g><g fill="#312e81" fill-opacity="0.4"><g transform="translate(266.553691, 172.955063)"><g><path d="M 47.046875 -47.046875 L 47.046875 -70.5625 L 23.515625 -70.5625 L 23.515625 -47.046875 Z M 11.765625 0 L 11.765625 -11.765625 L 0 -11.765625 L 0 -70.5625 L 11.765625 -70.5625 L 11.765625 -82.328125 L 58.796875 -82.328125 L 58.796875 -70.5625 L 70.5625 -70.5625 L 70.5625 -35.28125 L 23.515625 -35.28125 L 23.515625 -11.765625 L 58.796875 -11.765625 L 58.796875 0 Z M 11.765625 0 "/></g></g></g><g fill="#312e81" fill-opacity="0.4"><g transform="translate(348.878812, 172.955063)"><g><path d="M 0 0 L 0 -105.84375 L -11.765625 -105.84375 L -11.765625 -117.609375 L 23.515625 -117.609375 L 23.515625 0 Z M 0 0 "/></g></g></g><g fill="#312e81" fill-opacity="0.4"><g transform="translate(384.161008, 172.955063)"><g><path d="M 0 0 L 0 -11.765625 L 35.28125 -11.765625 L 35.28125 -35.28125 L 11.765625 -35.28125 L 11.765625 -47.046875 L 0 -47.046875 L 0 -70.5625 L 11.765625 -70.5625 L 11.765625 -82.328125 L 58.796875 -82.328125 L 58.796875 -70.5625 L 23.515625 -70.5625 L 23.515625 -47.046875 L 47.046875 -47.046875 L 47.046875 -35.28125 L 58.796875 -35.28125 L 58.796875 -11.765625 L 47.046875 -11.765625 L 47.046875 0 Z M 0 0 "/></g></g></g><g fill="#312e81" fill-opacity="1"><g transform="translate(0, 165.137467)"><g><path d="M 0 0 L 0 -105.84375 L 23.515625 -105.84375 L 23.515625 -94.09375 L 35.28125 -94.09375 L 35.28125 -70.5625 L 47.046875 -70.5625 L 47.046875 -94.09375 L 58.796875 -94.09375 L 58.796875 -105.84375 L 82.328125 -105.84375 L 82.328125 0 L 58.796875 0 L 58.796875 -58.796875 L 47.046875 -58.796875 L 47.046875 -35.28125 L 35.28125 -35.28125 L 35.28125 -58.796875 L 23.515625 -58.796875 L 23.515625 0 Z M 0 0 "/></g></g></g><g fill="#312e81" fill-opacity="1"><g transform="translate(94.085853, 165.137467)"><g><path d="M 47.046875 -11.765625 L 47.046875 -70.5625 L 23.515625 -70.5625 L 23.515625 -11.765625 Z M 11.765625 0 L 11.765625 -11.765625 L 0 -11.765625 L 0 -70.5625 L 11.765625 -70.5625 L 11.765625 -82.328125 L 58.796875 -82.328125 L 58.796875 -70.5625 L 70.5625 -70.5625 L 70.5625 -11.765625 L 58.796875 -11.765625 L 58.796875 0 Z M 11.765625 0 "/></g></g></g><g fill="#312e81" fill-opacity="1"><g transform="translate(176.410974, 165.137467)"><g><path d="M 47.046875 -11.765625 L 47.046875 -70.5625 L 23.515625 -70.5625 L 23.515625 -11.765625 Z M 11.765625 0 L 11.765625 -11.765625 L 0 -11.765625 L 0 -70.5625 L 11.765625 -70.5625 L 11.765625 -82.328125 L 47.046875 -82.328125 L 47.046875 -117.609375 L 70.5625 -117.609375 L 70.5625 0 Z M 11.765625 0 "/></g></g></g><g fill="#312e81" fill-opacity="1"><g transform="translate(258.736095, 165.137467)"><g><path d="M 47.046875 -47.046875 L 47.046875 -70.5625 L 23.515625 -70.5625 L 23.515625 -47.046875 Z M 11.765625 0 L 11.765625 -11.765625 L 0 -11.765625 L 0 -70.5625 L 11.765625 -70.5625 L 11.765625 -82.328125 L 58.796875 -82.328125 L 58.796875 -70.5625 L 70.5625 -70.5625 L 70.5625 -35.28125 L 23.515625 -35.28125 L 23.515625 -11.765625 L 58.796875 -11.765625 L 58.796875 0 Z M 11.765625 0 "/></g></g></g><g fill="#312e81" fill-opacity="1"><g transform="translate(341.061216, 165.137467)"><g><path d="M 0 0 L 0 -105.84375 L -11.765625 -105.84375 L -11.765625 -117.609375 L 23.515625 -117.609375 L 23.515625 0 Z M 0 0 "/></g></g></g><g fill="#312e81" fill-opacity="1"><g transform="translate(376.343411, 165.137467)"><g><path d="M 0 0 L 0 -11.765625 L 35.28125 -11.765625 L 35.28125 -35.28125 L 11.765625 -35.28125 L 11.765625 -47.046875 L 0 -47.046875 L 0 -70.5625 L 11.765625 -70.5625 L 11.765625 -82.328125 L 58.796875 -82.328125 L 58.796875 -70.5625 L 23.515625 -70.5625 L 23.515625 -47.046875 L 47.046875 -47.046875 L 47.046875 -35.28125 L 58.796875 -35.28125 L 58.796875 -11.765625 L 47.046875 -11.765625 L 47.046875 0 Z M 0 0 "/></g></g></g></svg>